<svg xmlns="http://www.w3.org/2000/svg" version="1.1" xmlns:xlink="http://www.w3.org/1999/xlink" xmlns:svgjs="http://svgjs.dev/svgjs" width="1000" height="1000" viewBox="0 0 1000 1000"><rect width="1000" height="1000" fill="#102e44"></rect><g transform="matrix(0.7,0,0,0.7,150.46097883131023,237.71255060728743)"><svg viewBox="0 0 329 247" data-background-color="#102e44" preserveAspectRatio="xMidYMid meet" height="750" width="1000" xmlns="http://www.w3.org/2000/svg" xmlns:xlink="http://www.w3.org/1999/xlink"><g id="tight-bounds" transform="matrix(1,0,0,1,-0.21665989287211573,-0.09999999999999432)"><svg viewBox="0 0 329.43331994358795 247.2" height="247.2" width="329.43331994358795"><g><svg viewBox="0 0 395.52 296.7900879508561" height="247.2" width="329.43331994358795"><g transform="matrix(1,0,0,1,0,179.2826266197392)"><svg viewBox="0 0 395.52 117.50746133111689" height="117.50746133111689" width="395.52"><g><svg viewBox="0 0 395.52 117.50746133111689" height="117.50746133111689" width="395.52"><g><svg viewBox="0 0 395.52 71.53338357196684" height="71.53338357196684" width="395.52"><g transform="matrix(1,0,0,1,0,0)"><svg width="395.52" viewBox="2.4000000953674316 -35.5 199.04000854492188 36" height="71.53338357196684" data-palette-color="#ffffff"><g class="undefined-text-0" data-fill-palette-color="primary" id="text-0"><path d="M20.4 0.5L20.4 0.5Q16.55 0.5 13.25-0.85 9.95-2.2 7.53-4.63 5.1-7.05 3.75-10.35 2.4-13.65 2.4-17.5L2.4-17.5Q2.4-21.35 3.75-24.65 5.1-27.95 7.53-30.38 9.95-32.8 13.25-34.15 16.55-35.5 20.4-35.5L20.4-35.5Q23.05-35.5 25.53-34.88 28-34.25 29.95-33L29.95-33Q30.3-32.75 30.48-32.43 30.65-32.1 30.65-31.75L30.65-31.75Q30.65-31.05 30.2-30.63 29.75-30.2 29.25-30.2L29.25-30.2Q29-30.2 28.78-30.28 28.55-30.35 28.35-30.45L28.35-30.45Q26.65-31.4 24.65-31.95 22.65-32.5 20.4-32.5L20.4-32.5Q16.1-32.5 12.75-30.55 9.4-28.6 7.5-25.2 5.6-21.8 5.6-17.5L5.6-17.5Q5.6-13.2 7.5-9.8 9.4-6.4 12.75-4.45 16.1-2.5 20.4-2.5L20.4-2.5Q22.65-2.5 24.93-3.15 27.2-3.8 28.85-4.9L28.85-4.9 28.6-3.85 28.6-15.35 29.35-14.65 20.7-14.65Q20.05-14.65 19.6-15.1 19.15-15.55 19.15-16.15L19.15-16.15Q19.15-16.85 19.6-17.25 20.05-17.65 20.7-17.65L20.7-17.65 30.25-17.65Q30.9-17.65 31.33-17.23 31.75-16.8 31.75-16.15L31.75-16.15 31.75-4.1Q31.75-3.7 31.55-3.35 31.35-3 31-2.75L31-2.75Q28.8-1.25 26.08-0.38 23.35 0.5 20.4 0.5ZM70.65-17.5L70.65-17.5Q70.65-13.55 69.42-10.28 68.2-7 65.95-4.58 63.7-2.15 60.62-0.83 57.55 0.5 53.9 0.5L53.9 0.5Q50.25 0.5 47.17-0.83 44.1-2.15 41.85-4.58 39.6-7 38.37-10.28 37.15-13.55 37.15-17.5L37.15-17.5Q37.15-21.45 38.37-24.73 39.6-28 41.85-30.43 44.1-32.85 47.17-34.18 50.25-35.5 53.9-35.5L53.9-35.5Q57.55-35.5 60.62-34.18 63.7-32.85 65.95-30.43 68.2-28 69.42-24.73 70.65-21.45 70.65-17.5ZM67.45-17.5L67.45-17.5Q67.45-21.95 65.72-25.33 64-28.7 60.95-30.6 57.9-32.5 53.9-32.5L53.9-32.5Q49.95-32.5 46.87-30.6 43.8-28.7 42.07-25.33 40.35-21.95 40.35-17.5L40.35-17.5Q40.35-13.05 42.07-9.68 43.8-6.3 46.87-4.4 49.95-2.5 53.9-2.5L53.9-2.5Q57.9-2.5 60.95-4.4 64-6.3 65.72-9.68 67.45-13.05 67.45-17.5ZM79.25-35L92-35Q95.7-35 98.47-33.6 101.25-32.2 103.05-29.73 104.85-27.25 105.72-24.1 106.6-20.95 106.6-17.5L106.6-17.5Q106.6-12.7 105.02-8.72 103.45-4.75 100.22-2.38 97 0 92 0L92 0 79.25 0Q78.65 0 78.2-0.45 77.75-0.9 77.75-1.5L77.75-1.5 77.75-33.5Q77.75-34.1 78.2-34.55 78.65-35 79.25-35L79.25-35ZM80.6-2.95L91.5-2.95Q95.75-2.95 98.35-4.9 100.95-6.85 102.17-10.18 103.4-13.5 103.4-17.5L103.4-17.5Q103.4-20.4 102.72-23.03 102.05-25.65 100.62-27.68 99.2-29.7 96.92-30.88 94.65-32.05 91.5-32.05L91.5-32.05 80.55-32.05 80.9-32.5 80.9-2.45 80.6-2.95ZM115.19-35L115.19-35 133.54-35Q134.14-35 134.59-34.58 135.04-34.15 135.04-33.5L135.04-33.5Q135.04-32.85 134.59-32.45 134.14-32.05 133.54-32.05L133.54-32.05 116.34-32.05 116.84-32.9 116.84-18.85 116.29-19.5 131.29-19.5Q131.89-19.5 132.34-19.05 132.79-18.6 132.79-18L132.79-18Q132.79-17.35 132.34-16.95 131.89-16.55 131.29-16.55L131.29-16.55 116.39-16.55 116.84-17.05 116.84-2.65 116.59-2.95 133.54-2.95Q134.14-2.95 134.59-2.5 135.04-2.05 135.04-1.45L135.04-1.45Q135.04-0.8 134.59-0.4 134.14 0 133.54 0L133.54 0 115.19 0Q114.59 0 114.14-0.45 113.69-0.9 113.69-1.5L113.69-1.5 113.69-33.5Q113.69-34.1 114.14-34.55 114.59-35 115.19-35ZM152.89-31.35L153.79-31.15 141.64-0.95Q141.44-0.45 141.09-0.2 140.74 0.05 140.29 0.05L140.29 0.05Q139.59 0.05 139.24-0.33 138.89-0.7 138.84-1.25L138.84-1.25Q138.79-1.5 138.89-1.85L138.89-1.85 152.09-34.15Q152.34-34.7 152.72-34.93 153.09-35.15 153.59-35.15L153.59-35.15Q154.09-35.15 154.47-34.88 154.84-34.6 155.04-34.15L155.04-34.15 168.19-2Q168.29-1.7 168.29-1.4L168.29-1.4Q168.29-0.7 167.84-0.33 167.39 0.05 166.79 0.05L166.79 0.05Q166.29 0.05 165.92-0.23 165.54-0.5 165.34-0.95L165.34-0.95 152.89-31.35ZM161.89-10.1L144.54-10.1 145.79-13.05 161.29-13.05 161.89-10.1ZM200.04-35L200.04-35Q200.69-35 201.06-34.6 201.44-34.2 201.44-33.6L201.44-33.6 201.44-1.6Q201.44-0.85 200.96-0.43 200.49 0 199.89 0L199.89 0Q199.59 0 199.24-0.13 198.89-0.25 198.69-0.5L198.69-0.5 176.39-30.55 177.24-31 177.24-1.35Q177.24-0.8 176.84-0.4 176.44 0 175.84 0L175.84 0Q175.19 0 174.81-0.4 174.44-0.8 174.44-1.35L174.44-1.35 174.44-33.5Q174.44-34.25 174.89-34.63 175.34-35 175.89-35L175.89-35Q176.19-35 176.54-34.88 176.89-34.75 177.09-34.45L177.09-34.45 199.14-4.75 198.64-3.85 198.64-33.6Q198.64-34.2 199.06-34.6 199.49-35 200.04-35Z" fill="#ffffff" data-fill-palette-color="primary"></path></g></svg></g></svg></g><g transform="matrix(1,0,0,1,0,88.42069863210249)"><svg viewBox="0 0 395.52 29.086762699014407" height="29.086762699014407" width="395.52"><g transform="matrix(1,0,0,1,0,0)"><svg width="395.52" viewBox="0.8500000238418579 -38.349998474121094 527.550048828125 38.79999923706055" height="29.086762699014407" data-palette-color="#ffffff"><path d="M5.85-36.15L5.85-36.15 24.7-36.15Q28.1-36.15 28.1-33.45L28.1-33.45Q28.1-32.25 27.15-31.3L27.15-31.3Q25.65-32.05 23.1-32.05L23.1-32.05 17.05-32.05 17.05-3.7Q17.05-1.9 18.4-1.3L18.4-1.3Q17.2 0.45 15.25 0.45L15.25 0.45Q11.8 0.45 11.8-3.75L11.8-3.75 11.8-32.05 4.2-32.05Q0.85-32.05 0.85-34.75L0.85-34.75Q0.85-35.95 1.75-36.85L1.75-36.85Q3.2-36.15 5.85-36.15ZM55.05-17.35L55.05-17.35 55.05-3.7Q55.05-1.9 56.45-1.3L56.45-1.3Q55.15 0.45 53.25 0.45L53.25 0.45Q49.85 0.45 49.85-3.75L49.85-3.75 49.85-16.85Q49.85-21.7 45.6-21.7L45.6-21.7Q43.35-21.7 41.32-19.8 39.3-17.9 38.5-14.65L38.5-14.65 38.5-3.7Q38.5-1.9 39.9-1.3L39.9-1.3Q38.6 0.45 36.7 0.45L36.7 0.45Q33.3 0.45 33.3-3.75L33.3-3.75 33.3-34.2Q33.3-35.95 31.9-36.65L31.9-36.65Q33.1-38.35 35.1-38.35L35.1-38.35Q38.5-38.35 38.5-34.15L38.5-34.15 38.5-20.2Q39.8-22.9 42.2-24.5 44.6-26.1 47.8-26.1 51-26.1 53.02-23.9 55.05-21.7 55.05-17.35ZM67.15-15L75.3-15.75Q77.25-15.9 77.25-18 77.25-20.1 76.12-21.48 75-22.85 72.95-22.85 70.9-22.85 69.22-20.8 67.55-18.75 67.15-15L67.15-15ZM67-12.35Q67.05-7.8 69.07-5.63 71.1-3.45 74.82-3.45 78.55-3.45 81.35-6.25L81.35-6.25Q82.2-5.8 82.2-4.7L82.2-4.7Q82.2-2.85 79.65-1.2 77.1 0.45 73.65 0.45L73.65 0.45Q68.25 0.45 64.95-2.78 61.65-6 61.65-11.95 61.65-17.9 65.25-22 68.85-26.1 73.8-26.1L73.8-26.1Q77.7-26.1 80.15-23.48 82.6-20.85 82.6-17.5L82.6-17.5Q82.6-15.05 81.32-13.9 80.05-12.75 77.1-12.7L77.1-12.7 67-12.35ZM108.34-21.95L107.74-21.95 107.74-6.8Q107.74-5 108.42-4.23 109.09-3.45 110.64-3.45L110.64-3.45Q113.69-3.45 116.24-6L116.24-6Q117.34-5.8 117.34-4.2 117.34-2.6 115.07-1.07 112.79 0.45 109.47 0.45 106.14 0.45 104.32-1.28 102.49-3 102.49-6.4L102.49-6.4 102.49-21.95Q100.44-22 99.49-22.63 98.54-23.25 98.54-24.25 98.54-25.25 99.29-25.8L99.29-25.8Q100.69-25.6 101.94-25.6L101.94-25.6 102.49-25.6 102.49-28.9Q102.49-30.7 101.09-31.3L101.09-31.3Q102.29-33.05 104.24-33.05L104.24-33.05Q107.74-33.05 107.74-28.85L107.74-28.85 107.74-25.6 115.84-25.6Q116.14-25.15 116.14-24.7L116.14-24.7Q116.14-21.95 108.34-21.95L108.34-21.95ZM125.59-37.3Q127.04-37.3 128.01-36.43 128.99-35.55 128.99-34.1 128.99-32.65 127.74-31.48 126.49-30.3 124.91-30.3 123.34-30.3 122.39-31.2 121.44-32.1 121.44-33.63 121.44-35.15 122.79-36.23 124.14-37.3 125.59-37.3ZM127.99-21.85L127.99-21.85 127.99-3.7Q127.99-1.9 129.39-1.3L129.39-1.3Q128.09 0.45 126.19 0.45L126.19 0.45Q122.79 0.45 122.79-3.75L122.79-3.75 122.79-21.9Q122.79-23.65 121.39-24.35L121.39-24.35Q122.69-26.1 124.59-26.1L124.59-26.1Q127.99-26.1 127.99-21.85ZM140.19-15L148.34-15.75Q150.29-15.9 150.29-18 150.29-20.1 149.16-21.48 148.04-22.85 145.99-22.85 143.94-22.85 142.26-20.8 140.59-18.75 140.19-15L140.19-15ZM140.04-12.35Q140.09-7.8 142.11-5.63 144.14-3.45 147.86-3.45 151.59-3.45 154.39-6.25L154.39-6.25Q155.24-5.8 155.24-4.7L155.24-4.7Q155.24-2.85 152.69-1.2 150.14 0.45 146.69 0.45L146.69 0.45Q141.29 0.45 137.99-2.78 134.69-6 134.69-11.95 134.69-17.9 138.29-22 141.89-26.1 146.84-26.1L146.84-26.1Q150.74-26.1 153.19-23.48 155.64-20.85 155.64-17.5L155.64-17.5Q155.64-15.05 154.36-13.9 153.09-12.75 150.14-12.7L150.14-12.7 140.04-12.35ZM213.73-17.35L213.73-17.35 213.73-3.7Q213.73-1.9 215.08-1.3L215.08-1.3Q213.93 0.45 211.93 0.45L211.93 0.45Q208.48 0.45 208.48-3.75L208.48-3.75 208.48-16.85Q208.48-21.7 204.28-21.7L204.28-21.7Q202.03-21.7 200.01-19.8 197.98-17.9 197.18-14.65L197.18-14.65 197.18-3.7Q197.18-1.9 198.58-1.3L198.58-1.3Q197.28 0.45 195.38 0.45L195.38 0.45Q191.98 0.45 191.98-3.75L191.98-3.75 191.98-16.85Q191.98-21.7 187.73-21.7L187.73-21.7Q185.48-21.7 183.46-19.8 181.43-17.9 180.63-14.65L180.63-14.65 180.63-3.7Q180.63-1.9 182.03-1.3L182.03-1.3Q180.73 0.45 178.83 0.45L178.83 0.45Q175.43 0.45 175.43-3.75L175.43-3.75 175.43-21.9Q175.43-23.65 174.03-24.35L174.03-24.35Q175.33-26.1 177.23-26.1L177.23-26.1Q180.63-26.1 180.63-21.85L180.63-21.85 180.63-20.2Q181.93-22.9 184.33-24.5 186.73-26.1 189.66-26.1 192.58-26.1 194.51-24.5 196.43-22.9 196.98-19.8L196.98-19.8Q198.18-22.65 200.68-24.38 203.18-26.1 206.43-26.1 209.68-26.1 211.71-23.88 213.73-21.65 213.73-17.35ZM226.13-6.5L226.13-6.5Q226.13-3.3 229.63-3.3 233.13-3.3 235.38-6.25L235.38-6.25 235.38-11.9Q230.63-11.65 228.38-10.18 226.13-8.7 226.13-6.5ZM240.63-17.75L240.63-17.75 240.63-5.05Q240.63-2.25 243.13-1.75L243.13-1.75Q241.88 0.45 239.28 0.45L239.28 0.45Q235.93 0.45 235.43-3.3L235.43-3.3Q232.53 0.45 227.68 0.45L227.68 0.45Q224.48 0.45 222.48-1.25 220.48-2.95 220.48-5.95L220.48-5.95Q220.48-9.65 224.28-11.93 228.08-14.2 235.38-14.4L235.38-14.4 235.38-17.9Q235.38-20.6 234.4-21.88 233.43-23.15 231.4-23.15 229.38-23.15 228.33-22.28 227.28-21.4 227.28-20.18 227.28-18.95 227.98-18.2L227.98-18.2Q226.73-17.1 225.08-17.1 223.43-17.1 222.5-17.93 221.58-18.75 221.58-20.2L221.58-20.2Q221.58-22.7 224.48-24.4 227.38-26.1 231.5-26.1 235.63-26.1 238.13-23.95 240.63-21.8 240.63-17.75ZM254.53-34.15L254.53-34.15 254.53-15.25Q264.98-19.9 264.98-26.1L264.98-26.1Q267.13-26.1 268.45-25.1 269.78-24.1 269.78-22.45L269.78-22.45Q269.78-19.85 266.8-17.63 263.82-15.4 258.57-13.75L258.57-13.75Q264.18-7.15 266.73-5.6L266.73-5.6Q268.18-4.65 269.13-4.4 270.07-4.15 271.43-4.15L271.43-4.15Q271.43-2.1 270.4-0.83 269.38 0.45 267.57 0.45L267.57 0.45Q265.13 0.45 262.6-2.13 260.07-4.7 254.53-12.5L254.53-12.5 254.53-3.7Q254.53-1.9 255.93-1.3L255.93-1.3Q254.63 0.45 252.73 0.45L252.73 0.45Q249.33 0.45 249.33-3.75L249.33-3.75 249.33-34.2Q249.33-35.95 247.93-36.65L247.93-36.65Q249.13-38.35 251.13-38.35L251.13-38.35Q254.53-38.35 254.53-34.15ZM281.17-15L289.32-15.75Q291.27-15.9 291.27-18 291.27-20.1 290.15-21.48 289.02-22.85 286.97-22.85 284.92-22.85 283.25-20.8 281.57-18.75 281.17-15L281.17-15ZM281.02-12.35Q281.07-7.8 283.1-5.63 285.12-3.45 288.85-3.45 292.57-3.45 295.37-6.25L295.37-6.25Q296.22-5.8 296.22-4.7L296.22-4.7Q296.22-2.85 293.67-1.2 291.12 0.45 287.67 0.45L287.67 0.45Q282.27 0.45 278.97-2.78 275.67-6 275.67-11.95 275.67-17.9 279.27-22 282.87-26.1 287.82-26.1L287.82-26.1Q291.72-26.1 294.17-23.48 296.62-20.85 296.62-17.5L296.62-17.5Q296.62-15.05 295.35-13.9 294.07-12.75 291.12-12.7L291.12-12.7 281.02-12.35ZM320.77-20.8L320.77-20.8Q320.77-19.55 319.92-18.82 319.07-18.1 317.75-18.1 316.42-18.1 315.37-18.85L315.37-18.85Q315.62-19.35 315.62-20.35 315.62-21.35 314.57-22.15 313.52-22.95 311.5-22.95 309.47-22.95 308.27-22.05 307.07-21.15 307.07-19.83 307.07-18.5 308.55-17.43 310.02-16.35 312.12-15.43 314.22-14.5 316.35-13.45 318.47-12.4 319.95-10.75 321.42-9.1 321.42-7.1L321.42-7.1Q321.42-3.9 318.45-1.73 315.47 0.45 311 0.45 306.52 0.45 303.67-1.23 300.82-2.9 300.77-5.5L300.77-5.5Q300.77-7.15 301.77-8.08 302.77-9 304.25-9 305.72-9 306.67-7.9L306.67-7.9Q305.92-7 305.92-5.7 305.92-4.4 307.2-3.55 308.47-2.7 310.85-2.7 313.22-2.7 314.67-3.7 316.12-4.7 316.12-6.2 316.12-7.7 314.65-8.83 313.17-9.95 311.1-10.85 309.02-11.75 306.92-12.75 304.82-13.75 303.35-15.3 301.87-16.85 301.87-18.8L301.87-18.8Q301.87-21.85 304.65-23.98 307.42-26.1 311.32-26.1 315.22-26.1 318-24.63 320.77-23.15 320.77-20.8ZM347.82-21.95L347.22-21.95 347.22-6.8Q347.22-5 347.89-4.23 348.57-3.45 350.12-3.45L350.12-3.45Q353.17-3.45 355.72-6L355.72-6Q356.82-5.8 356.82-4.2 356.82-2.6 354.54-1.07 352.27 0.45 348.94 0.45 345.62 0.45 343.79-1.28 341.97-3 341.97-6.4L341.97-6.4 341.97-21.95Q339.92-22 338.97-22.63 338.02-23.25 338.02-24.25 338.02-25.25 338.77-25.8L338.77-25.8Q340.17-25.6 341.42-25.6L341.42-25.6 341.97-25.6 341.97-28.9Q341.97-30.7 340.57-31.3L340.57-31.3Q341.77-33.05 343.72-33.05L343.72-33.05Q347.22-33.05 347.22-28.85L347.22-28.85 347.22-25.6 355.32-25.6Q355.62-25.15 355.62-24.7L355.62-24.7Q355.62-21.95 347.82-21.95L347.82-21.95ZM384.01-17.35L384.01-17.35 384.01-3.7Q384.01-1.9 385.41-1.3L385.41-1.3Q384.11 0.45 382.21 0.45L382.21 0.45Q378.81 0.45 378.81-3.75L378.81-3.75 378.81-16.85Q378.81-21.7 374.56-21.7L374.56-21.7Q372.31-21.7 370.29-19.8 368.26-17.9 367.46-14.65L367.46-14.65 367.46-3.7Q367.46-1.9 368.86-1.3L368.86-1.3Q367.56 0.45 365.66 0.45L365.66 0.45Q362.26 0.45 362.26-3.75L362.26-3.75 362.26-34.2Q362.26-35.95 360.86-36.65L360.86-36.65Q362.06-38.35 364.06-38.35L364.06-38.35Q367.46-38.35 367.46-34.15L367.46-34.15 367.46-20.2Q368.76-22.9 371.16-24.5 373.56-26.1 376.76-26.1 379.96-26.1 381.99-23.9 384.01-21.7 384.01-17.35ZM396.11-15L404.26-15.75Q406.21-15.9 406.21-18 406.21-20.1 405.09-21.48 403.96-22.85 401.91-22.85 399.86-22.85 398.19-20.8 396.51-18.75 396.11-15L396.11-15ZM395.96-12.35Q396.01-7.8 398.04-5.63 400.06-3.45 403.79-3.45 407.51-3.45 410.31-6.25L410.31-6.25Q411.16-5.8 411.16-4.7L411.16-4.7Q411.16-2.85 408.61-1.2 406.06 0.45 402.61 0.45L402.61 0.45Q397.21 0.45 393.91-2.78 390.61-6 390.61-11.95 390.61-17.9 394.21-22 397.81-26.1 402.76-26.1L402.76-26.1Q406.66-26.1 409.11-23.48 411.56-20.85 411.56-17.5L411.56-17.5Q411.56-15.05 410.29-13.9 409.01-12.75 406.06-12.7L406.06-12.7 395.96-12.35ZM469.66-17.35L469.66-17.35 469.66-3.7Q469.66-1.9 471.01-1.3L471.01-1.3Q469.86 0.45 467.86 0.45L467.86 0.45Q464.41 0.45 464.41-3.75L464.41-3.75 464.41-16.85Q464.41-21.7 460.21-21.7L460.21-21.7Q457.96-21.7 455.93-19.8 453.91-17.9 453.11-14.65L453.11-14.65 453.11-3.7Q453.11-1.9 454.51-1.3L454.51-1.3Q453.21 0.45 451.31 0.45L451.31 0.45Q447.91 0.45 447.91-3.75L447.91-3.75 447.91-16.85Q447.91-21.7 443.66-21.7L443.66-21.7Q441.41-21.7 439.38-19.8 437.36-17.9 436.56-14.65L436.56-14.65 436.56-3.7Q436.56-1.9 437.96-1.3L437.96-1.3Q436.66 0.45 434.76 0.45L434.76 0.45Q431.36 0.45 431.36-3.75L431.36-3.75 431.36-21.9Q431.36-23.65 429.96-24.35L429.96-24.35Q431.26-26.1 433.16-26.1L433.16-26.1Q436.56-26.1 436.56-21.85L436.56-21.85 436.56-20.2Q437.86-22.9 440.26-24.5 442.66-26.1 445.58-26.1 448.51-26.1 450.43-24.5 452.36-22.9 452.91-19.8L452.91-19.8Q454.11-22.65 456.61-24.38 459.11-26.1 462.36-26.1 465.61-26.1 467.63-23.88 469.66-21.65 469.66-17.35ZM482.05-6.5L482.05-6.5Q482.05-3.3 485.55-3.3 489.05-3.3 491.3-6.25L491.3-6.25 491.3-11.9Q486.55-11.65 484.3-10.18 482.05-8.7 482.05-6.5ZM496.55-17.75L496.55-17.75 496.55-5.05Q496.55-2.25 499.05-1.75L499.05-1.75Q497.8 0.45 495.2 0.45L495.2 0.45Q491.85 0.45 491.35-3.3L491.35-3.3Q488.45 0.45 483.6 0.45L483.6 0.45Q480.4 0.45 478.4-1.25 476.4-2.95 476.4-5.95L476.4-5.95Q476.4-9.65 480.2-11.93 484-14.2 491.3-14.4L491.3-14.4 491.3-17.9Q491.3-20.6 490.33-21.88 489.35-23.15 487.33-23.15 485.3-23.15 484.25-22.28 483.2-21.4 483.2-20.18 483.2-18.95 483.9-18.2L483.9-18.2Q482.65-17.1 481-17.1 479.35-17.1 478.43-17.93 477.5-18.75 477.5-20.2L477.5-20.2Q477.5-22.7 480.4-24.4 483.3-26.1 487.43-26.1 491.55-26.1 494.05-23.95 496.55-21.8 496.55-17.75ZM527-17.35L527-17.35 527-3.7Q527-1.9 528.4-1.3L528.4-1.3Q527.1 0.45 525.2 0.45L525.2 0.45Q521.8 0.45 521.8-3.75L521.8-3.75 521.8-16.85Q521.8-21.7 517.55-21.7L517.55-21.7Q515.3-21.7 513.27-19.8 511.25-17.9 510.45-14.65L510.45-14.65 510.45-3.7Q510.45-1.9 511.85-1.3L511.85-1.3Q510.55 0.45 508.65 0.45L508.65 0.45Q505.25 0.45 505.25-3.75L505.25-3.75 505.25-21.9Q505.25-23.65 503.85-24.35L503.85-24.35Q505.15-26.1 507.05-26.1L507.05-26.1Q510.45-26.1 510.45-21.85L510.45-21.85 510.45-20.2Q511.75-22.9 514.15-24.5 516.55-26.1 519.75-26.1 522.95-26.1 524.98-23.9 527-21.7 527-17.35Z" opacity="1" transform="matrix(1,0,0,1,0,0)" fill="#ffffff" class="undefined-text-1" data-fill-palette-color="secondary" id="text-1"></path></svg></g></svg></g></svg></g></svg></g><g transform="matrix(1,0,0,1,168.93544048198672,0)"><svg viewBox="0 0 57.649119036026526 162.39531155960356" height="162.39531155960356" width="57.649119036026526"><g><svg xmlns="http://www.w3.org/2000/svg" xmlns:xlink="http://www.w3.org/1999/xlink" version="1.1" x="0" y="0" viewBox="30.506000518798828 6.014999866485596 31.342998504638672 88.29199981689453" enable-background="new 0 0 100 100" xml:space="preserve" height="162.39531155960356" width="57.649119036026526" class="icon-icon-0" data-fill-palette-color="accent" id="icon-0"><polygon fill="#b2fcfb" points="45.706,22.347 39.707,84 50.776,94.307 61.849,84 56.21,22.347 " data-fill-palette-color="accent"></polygon><polygon fill="#b2fcfb" points="60.509,6.015 41.422,6.015 45.714,21.667 56.218,21.667 " data-fill-palette-color="accent"></polygon><g fill="#b2fcfb" data-fill-palette-color="accent"><polygon fill="#b2fcfb" points="30.506,55.647 32.949,60.577 38.149,58.778 42.233,50 44.749,26.771  " data-fill-palette-color="accent"></polygon></g></svg></g></svg></g><g></g></svg></g><defs></defs></svg><rect width="329.43331994358795" height="247.2" fill="none" stroke="none" visibility="hidden"></rect></g></svg></g></svg>